<?xml version="1.0" standalone="no"?>
<!DOCTYPE svg PUBLIC "-//W3C//DTD SVG 20010904//EN"
 "http://www.w3.org/TR/2001/REC-SVG-20010904/DTD/svg10.dtd">
<svg version="1.0" xmlns="http://www.w3.org/2000/svg"
 width="1504.000000pt" height="950.000000pt" viewBox="0 0 1504.000000 950.000000"
 preserveAspectRatio="xMidYMid meet">

<g transform="translate(0.000000,950.000000) scale(0.100000,-0.100000)"
fill="#000000" stroke="none">
<path d="M6162 5327 c-993 -993 -1092 -1095 -1092 -1124 0 -63 1 -63 426 -63
214 0 405 4 434 10 131 25 119 14 756 653 517 517 595 600 620 652 l29 60 3
434 c3 396 1 435 -14 452 -43 48 -5 83 -1162 -1074z"/>
<path d="M5086 3835 c-9 -9 -16 -31 -16 -48 0 -29 100 -132 1089 -1121 966
-966 1093 -1089 1120 -1089 64 0 62 -19 59 462 l-3 436 -28 61 c-25 54 -90
122 -630 661 -525 523 -609 603 -657 624 -55 24 -56 24 -486 27 -386 2 -433 1
-448 -13z"/>
<path d="M7646 3828 c-14 -20 -16 -143 -16 -1118 l0 -1097 23 -21 c13 -12 34
-22 47 -22 19 0 123 98 440 415 l415 415 445 -445 c388 -388 449 -445 475
-445 26 0 64 34 268 238 181 181 237 243 237 262 0 19 -100 124 -447 472
l-448 448 413 413 c365 365 412 416 412 443 0 69 84 64 -1143 64 l-1106 0 -15
-22z"/>
</g>
</svg>
