<svg version="1.1" id="Layer_1" xmlns="http://www.w3.org/2000/svg" xmlns:xlink="http://www.w3.org/1999/xlink" x="0px" y="0px"
	 width="100%" viewBox="0 0 1504 950" enable-background="new 0 0 1504 950" xml:space="preserve">
<path fill="#FFFFFF" opacity="1.000000" stroke="none" 
	d="
M929.000000,951.000000 
	C620.833313,951.000000 313.166656,950.992004 5.500031,951.093140 
	C1.750882,951.094421 0.905645,950.249084 0.906852,946.500000 
	C1.007834,632.833313 1.007834,319.166656 0.906852,5.500030 
	C0.905645,1.750886 1.750968,0.906417 5.500018,0.907152 
	C503.833344,1.004930 1002.166687,1.004930 1500.500000,0.907152 
	C1504.249023,0.906417 1505.094360,1.750885 1505.093140,5.500030 
	C1504.992188,319.166656 1504.992188,632.833313 1505.093140,946.500000 
	C1505.094360,950.249084 1504.249268,951.095764 1500.500000,951.093689 
	C1310.166626,950.987183 1119.833374,951.000000 929.000000,951.000000 
z"/>
<path fill="#222C59" opacity="1.000000" stroke="none" 
	d="
M987.521729,566.278687 
	C993.473877,569.147095 993.907104,573.553406 989.077576,578.390564 
	C965.297119,602.208801 941.476685,625.987061 917.720459,649.829346 
	C915.056580,652.502930 910.360229,654.875916 910.501709,658.122009 
	C910.620789,660.854431 915.002075,663.444763 917.574951,666.019653 
	C943.249878,691.714050 968.942200,717.391052 994.626587,743.075989 
	C1000.700378,749.149841 1000.691101,751.397949 994.575012,757.516479 
	C981.499756,770.597229 968.431274,783.684875 955.336365,796.745911 
	C950.468018,801.601746 947.171692,801.563904 942.227905,796.622925 
	C914.886047,769.296509 887.552368,741.961914 860.236572,714.609436 
	C859.063782,713.435059 858.095154,712.056702 856.867188,710.575256 
	C840.167175,727.295410 823.937561,743.549072 807.702637,759.797424 
	C797.338867,770.169556 786.998596,780.565491 776.584656,790.887024 
	C771.585205,795.841980 767.381409,795.037781 764.218994,788.329529 
	C765.484436,785.613159 764.978882,783.069275 764.979980,780.607361 
	C765.009399,713.039856 765.002808,645.472412 765.004211,577.904907 
	C765.004211,575.244934 764.890320,572.578064 765.282349,569.487671 
	C765.546387,567.328369 766.897705,566.614990 768.679443,566.025391 
	C770.074402,566.729980 771.269043,566.507812 772.416199,566.507385 
	C843.965576,566.481567 915.514954,566.586426 987.521729,566.278687 
z"/>
<path fill="#01C9F1" opacity="1.000000" stroke="none" 
	d="
M968.562134,503.437927 
	C975.411133,510.285370 981.890381,517.009338 988.664062,523.422241 
	C991.676697,526.274475 993.028015,529.490356 991.699158,533.202942 
	C990.354004,536.960938 986.756897,537.019104 983.276733,537.011292 
	C959.948608,536.958923 936.620300,536.959534 913.292114,536.995422 
	C901.895264,537.013000 892.181641,533.040283 884.132141,524.991760 
	C848.193054,489.057373 812.265076,453.111877 776.317261,417.186188 
	C767.986267,408.860321 764.060242,398.834686 764.103821,387.078979 
	C764.188354,364.250946 764.152344,341.422302 764.104919,318.594086 
	C764.097046,314.813080 763.996216,310.909302 768.159790,309.249634 
	C772.374023,307.569794 775.311340,310.126556 778.170837,312.989227 
	C841.525330,376.414734 904.922913,439.797150 968.562134,503.437927 
z"/>
<path fill="#2D61F1" opacity="1.000000" stroke="none" 
	d="
M515.382080,519.385010 
	C584.189819,450.576447 652.747437,382.018036 721.305176,313.459869 
	C722.129761,312.635345 722.982361,311.837189 723.777893,310.985596 
	C725.977600,308.630493 728.722839,308.179321 731.564392,309.198975 
	C734.606689,310.290649 735.651794,312.926575 735.691345,315.982117 
	C735.734497,319.313385 735.706787,322.645569 735.706909,325.977356 
	C735.707458,345.301849 735.487061,364.629669 735.779968,383.949738 
	C735.996521,398.232300 731.220276,409.764252 720.872437,419.932861 
	C685.702576,454.493622 650.974487,489.505005 616.186035,524.452087 
	C607.724060,532.952637 597.729614,537.046814 585.805298,537.003906 
	C562.649475,536.920593 539.493225,536.970581 516.337158,536.991638 
	C513.810913,536.993896 511.370483,537.010071 509.335205,535.099548 
	C506.472260,532.412048 505.865814,529.532166 508.548523,526.467224 
	C510.629120,524.090210 512.929382,521.905457 515.382080,519.385010 
z"/>
<path fill="#FF2088" opacity="1.000000" stroke="none" 
	d="
M625.106689,586.893311 
	C657.997437,619.783875 690.598877,652.463867 723.306885,685.036804 
	C731.556458,693.252258 735.660095,703.057434 735.694458,714.577087 
	C735.764099,737.907288 735.716248,761.237732 735.713318,784.568115 
	C735.713013,787.074341 735.830811,789.662109 733.881836,791.613464 
	C731.157715,794.340759 728.092163,794.799988 724.932434,792.394653 
	C723.617188,791.393311 722.517700,790.104919 721.339905,788.927185 
	C651.579285,719.169800 581.820557,649.410522 512.062988,579.650085 
	C511.003143,578.590149 509.870087,577.586975 508.925232,576.431335 
	C505.244080,571.928894 507.225250,566.681641 512.989014,565.745117 
	C514.618958,565.480286 516.311523,565.553101 517.975403,565.552246 
	C539.139404,565.541382 560.316589,566.003235 581.462952,565.392822 
	C596.872009,564.948059 609.535278,569.584351 619.572327,581.321960 
	C621.192505,583.216614 623.088440,584.875305 625.106689,586.893311 
z"/>
<path fill="#111C4C" opacity="1.000000" stroke="none" 
	d="
M764.885986,569.383789 
	C766.631165,570.564087 765.967529,572.503418 765.968384,574.257507 
	C766.002808,643.705200 766.004395,713.152954 765.957581,782.600647 
	C765.956482,784.313843 766.783630,786.293762 764.661255,787.857300 
	C764.230408,786.649231 764.118652,785.321350 764.118530,783.993408 
	C764.110046,714.207153 764.108521,644.420898 764.126892,574.634644 
	C764.127319,572.997314 763.764038,571.293274 764.885986,569.383789 
z"/>
<path fill="#111C4C" opacity="1.000000" stroke="none" 
	d="
M987.533020,565.941711 
	C986.633484,567.559082 984.860413,566.987488 983.266113,566.988098 
	C913.355713,567.015137 843.445251,567.013550 773.534851,566.996033 
	C772.222290,566.995728 770.909729,566.764221 769.305054,566.343018 
	C770.657288,565.880737 772.301636,565.572693 773.946045,565.572144 
	C843.666443,565.548218 913.386902,565.550354 983.107300,565.561646 
	C984.433838,565.561829 985.760376,565.709656 987.533020,565.941711 
z"/>
</svg>